<svg width="800" height="600" xmlns="http://www.w3.org/2000/svg">

 <g>
  <title>Layer 1</title>
  <g id="svg_42">
   <ellipse transform="matrix(0.0300037, -2.38742, 2.57569, 0.0278106, -198.782, 1726.49)" ry="13.35992" rx="25.13209" id="svg_33" cy="264.83881" cx="505.35737" stroke-width="3" fill="#ffcb9d"/>
   <ellipse transform="matrix(0.0300037, -2.38742, 2.57569, 0.0278106, -414.351, 1527.52)" ry="13.35215" rx="24.46547" id="svg_32" cy="265.50582" cx="421.3579" stroke-width="3" fill="#ffcb9d"/>
   <ellipse transform="matrix(2.55015, -0.336542, 0.363081, 2.36375, -463.923, -31.35)" stroke-opacity="0" ry="51.37932" rx="42.75861" id="svg_4" cy="121.84555" cx="282.27279" stroke-width="3" stroke="#000000" fill="#ffe9c8"/>
   <ellipse stroke-opacity="0" ry="122.67258" rx="110.14035" id="svg_8" cy="135.3198" cx="406.74102" stroke-width="3" stroke="#000000" fill="#ffe9c8"/>
   <ellipse transform="matrix(2.45911, 0.710663, -0.766703, 2.27937, -194.17, -449.039)" stroke-opacity="0" ry="51.37932" rx="42.75861" id="svg_9" cy="162.80426" cx="334.85165" stroke-width="3" stroke="#000000" fill="#ffe9c8"/>
   <ellipse transform="matrix(1.86422, -1.64764, 1.77757, 1.72796, -557.931, 549.303)" stroke-opacity="0" ry="51.37932" rx="42.75861" id="svg_10" cy="113.6252" cx="321.45351" stroke-width="3" stroke="#000000" fill="#ffe9c8"/>
   <ellipse transform="matrix(2.55015, -0.336543, 0.363081, 2.36375, -483.749, -17.452)" stroke-opacity="0" ry="51.37932" rx="42.75861" id="svg_12" cy="179.08693" cx="319.51417" stroke-width="3" stroke="#000000" fill="#ffe9c8"/>
   <ellipse transform="matrix(-0.00174448, -2.38759, 2.57586, -0.00161697, -369.193, 1505.54)" ry="14.23568" rx="21.83335" id="svg_34" cy="252.94234" cx="422.25697" stroke-width="3" fill="#ffba7e"/>
   <ellipse transform="matrix(2.57146, 0.139586, -0.150593, 2.3835, -352.948, -206.566)" stroke-opacity="0" ry="51.37932" rx="42.75861" id="svg_39" cy="238.45594" cx="265.34348" stroke-width="3" stroke="#000000" fill="#ffdca7"/>
   <ellipse transform="matrix(0.316993, 2.36944, -2.55628, 0.293823, 1073.53, -371.289)" stroke-opacity="0" ry="51.37932" rx="42.75861" id="svg_11" cy="359.34009" cx="257.96986" stroke-width="3" stroke="#000000" fill="#ffe9c8"/>
   <ellipse transform="matrix(-0.00174448, -2.38759, 2.57586, -0.00161697, -156.097, 1714.06)" ry="14.57217" rx="21.49686" id="svg_35" cy="255.27445" cx="507.25918" stroke-width="3" fill="#ffba7e"/>
   <ellipse transform="matrix(2.57146, 0.139586, -0.150593, 2.3835, -352.857, -212.618)" stroke-opacity="0" ry="51.37932" rx="42.75861" id="svg_41" cy="237.78927" cx="308.67682" stroke-width="3" stroke="#000000" fill="#ffdca7"/>
   <ellipse transform="matrix(2.39792, 0.872009, -0.940773, 2.22265, -57.8244, -426.195)" stroke-opacity="0" ry="51.37932" rx="42.75861" id="svg_13" cy="264.05538" cx="255.45173" stroke-width="3" stroke="#000000" fill="#ffe9c8"/>
   <ellipse transform="matrix(2.57146, 0.139586, -0.150593, 2.3835, -353.233, -219.799)" stroke-opacity="0" ry="51.37932" rx="42.75861" id="svg_40" cy="233.78927" cx="360.01015" stroke-width="3" stroke="#000000" fill="#ffdca7"/>
   <ellipse transform="matrix(2.57146, 0.139586, -0.150593, 2.3835, -354.762, -212.762)" stroke-opacity="0" ry="51.37932" rx="42.75861" id="svg_14" cy="225.1226" cx="309.34347" stroke-width="3" stroke="#000000" fill="#ffe9c8"/>
   <ellipse transform="matrix(2.22112, -1.20914, 1.30449, 2.05878, -614.665, 482.834)" stroke-opacity="0" ry="51.37932" rx="42.75861" id="svg_15" cy="183.37157" cx="408.97709" stroke-width="3" stroke="#000000" fill="#ffe9c8"/>
   <ellipse transform="matrix(0.186244, -2.38134, 2.56912, 0.172631, 89.2241, 1478.37)" stroke-opacity="0" ry="51.37932" rx="42.75861" id="svg_16" cy="146.39301" cx="524.81504" stroke-width="3" stroke="#000000" fill="#ffe9c8"/>
   <ellipse transform="matrix(2.55003, -0.337274, 0.363871, 2.36364, -479.28, -43.3475)" ry="23.3298" rx="29.44926" id="svg_22" cy="160.91681" cx="243.10386" stroke-width="3" fill="#ffba7e"/>
   <ellipse transform="matrix(2.55593, -0.296439, 0.319815, 2.36911, -469.206, -58.0317)" ry="22.75862" rx="30.68966" id="svg_17" cy="158.02272" cx="241.27188" stroke-width="3" fill="#ffcb9d"/>
   <ellipse transform="matrix(0.053301, -2.38708, 2.57531, 0.0494051, -164.142, 1164.64)" ry="4.37367" rx="6.9473" id="svg_21" cy="139.35087" cx="394.76868" stroke-width="0" stroke="#999999" fill="#3f3f3f"/>
   <g transform="matrix(2.54821, 0.348924, -0.376438, 2.36195, -314.26, -277.81)" id="svg_26">
    <rect transform="matrix(0.719959, 0.407939, -0.416733, 0.704766, 146.489, -147.552)" id="svg_24" height="20.63613" width="21.55253" y="234.79821" x="288.65874" stroke-width="3" fill="#ffcb9d"/>
    <ellipse transform="matrix(0.830332, 0.0494842, -0.050551, 0.81281, 79.1273, -39.4142)" ry="12.91252" rx="14.37632" id="svg_23" cy="212.81964" cx="232.06377" stroke-width="3" fill="#ffcb9d"/>
   </g>
  </g>
 </g>
</svg>