<svg id="visual" viewBox="0 0 2560 1440" width="2560" height="1440" xmlns="http://www.w3.org/2000/svg" xmlns:xlink="http://www.w3.org/1999/xlink" version="1.1"><path d="M0 59L85.3 68.5C170.7 78 341.3 97 512 104.2C682.7 111.3 853.3 106.7 1024 87.3C1194.7 68 1365.3 34 1536 34C1706.7 34 1877.3 68 2048 89.8C2218.7 111.7 2389.3 121.3 2474.7 126.2L2560 131L2560 0L2474.7 0C2389.3 0 2218.7 0 2048 0C1877.3 0 1706.7 0 1536 0C1365.3 0 1194.7 0 1024 0C853.3 0 682.7 0 512 0C341.3 0 170.7 0 85.3 0L0 0Z" fill="#4778cf"></path><path d="M0 159L85.3 211.8C170.7 264.7 341.3 370.3 512 416C682.7 461.7 853.3 447.3 1024 380.2C1194.7 313 1365.3 193 1536 178.7C1706.7 164.3 1877.3 255.7 2048 289.3C2218.7 323 2389.3 299 2474.7 287L2560 275L2560 129L2474.7 124.2C2389.3 119.3 2218.7 109.7 2048 88.2C1877.3 66.7 1706.7 33.3 1536 33.3C1365.3 33.3 1194.7 66.7 1024 85.7C853.3 104.7 682.7 109.3 512 102.2C341.3 95 170.7 76 85.3 66.5L0 57Z" fill="#2d5fa2"></path><path d="M0 188L85.3 260C170.7 332 341.3 476 512 524C682.7 572 853.3 524 1024 432.8C1194.7 341.7 1365.3 207.3 1536 207.3C1706.7 207.3 1877.3 341.7 2048 380C2218.7 418.3 2389.3 360.7 2474.7 331.8L2560 303L2560 273L2474.7 285C2389.3 297 2218.7 321 2048 287.3C1877.3 253.7 1706.7 162.3 1536 176.7C1365.3 191 1194.7 311 1024 378.2C853.3 445.3 682.7 459.7 512 414C341.3 368.3 170.7 262.7 85.3 209.8L0 157Z" fill="#194777"></path><path d="M0 231L85.3 307.8C170.7 384.7 341.3 538.3 512 586.3C682.7 634.3 853.3 576.7 1024 473.5C1194.7 370.3 1365.3 221.7 1536 226.5C1706.7 231.3 1877.3 389.7 2048 444.8C2218.7 500 2389.3 452 2474.7 428L2560 404L2560 301L2474.7 329.8C2389.3 358.7 2218.7 416.3 2048 378C1877.3 339.7 1706.7 205.3 1536 205.3C1365.3 205.3 1194.7 339.7 1024 430.8C853.3 522 682.7 570 512 522C341.3 474 170.7 330 85.3 258L0 186Z" fill="#0d2f4f"></path><path d="M0 505L85.3 536.2C170.7 567.3 341.3 629.7 512 682.5C682.7 735.3 853.3 778.7 1024 709.2C1194.7 639.7 1365.3 457.3 1536 411.7C1706.7 366 1877.3 457 2048 524.2C2218.7 591.3 2389.3 634.7 2474.7 656.3L2560 678L2560 402L2474.7 426C2389.3 450 2218.7 498 2048 442.8C1877.3 387.7 1706.7 229.3 1536 224.5C1365.3 219.7 1194.7 368.3 1024 471.5C853.3 574.7 682.7 632.3 512 584.3C341.3 536.3 170.7 382.7 85.3 305.8L0 229Z" fill="#06182a"></path><path d="M0 505L85.3 536.2C170.7 567.3 341.3 629.7 512 684.8C682.7 740 853.3 788 1024 740C1194.7 692 1365.3 548 1536 507.2C1706.7 466.3 1877.3 528.7 2048 588.7C2218.7 648.7 2389.3 706.3 2474.7 735.2L2560 764L2560 676L2474.7 654.3C2389.3 632.7 2218.7 589.3 2048 522.2C1877.3 455 1706.7 364 1536 409.7C1365.3 455.3 1194.7 637.7 1024 707.2C853.3 776.7 682.7 733.3 512 680.5C341.3 627.7 170.7 565.3 85.3 534.2L0 503Z" fill="#000e1c"></path><path d="M0 807L85.3 862.3C170.7 917.7 341.3 1028.3 512 1069.2C682.7 1110 853.3 1081 1024 1061.7C1194.7 1042.3 1365.3 1032.7 1536 1027.8C1706.7 1023 1877.3 1023 2048 1042.3C2218.7 1061.7 2389.3 1100.3 2474.7 1119.7L2560 1139L2560 762L2474.7 733.2C2389.3 704.3 2218.7 646.7 2048 586.7C1877.3 526.7 1706.7 464.3 1536 505.2C1365.3 546 1194.7 690 1024 738C853.3 786 682.7 738 512 682.8C341.3 627.7 170.7 565.3 85.3 534.2L0 503Z" fill="#000e1c"></path><path d="M0 908L85.3 948.8C170.7 989.7 341.3 1071.3 512 1114.5C682.7 1157.7 853.3 1162.3 1024 1150.3C1194.7 1138.3 1365.3 1109.7 1536 1090.5C1706.7 1071.3 1877.3 1061.7 2048 1073.7C2218.7 1085.7 2389.3 1119.3 2474.7 1136.2L2560 1153L2560 1137L2474.7 1117.7C2389.3 1098.3 2218.7 1059.7 2048 1040.3C1877.3 1021 1706.7 1021 1536 1025.8C1365.3 1030.7 1194.7 1040.3 1024 1059.7C853.3 1079 682.7 1108 512 1067.2C341.3 1026.3 170.7 915.7 85.3 860.3L0 805Z" fill="#06182a"></path><path d="M0 1067L85.3 1091C170.7 1115 341.3 1163 512 1191.7C682.7 1220.3 853.3 1229.7 1024 1208C1194.7 1186.3 1365.3 1133.7 1536 1117C1706.7 1100.3 1877.3 1119.7 2048 1150.8C2218.7 1182 2389.3 1225 2474.7 1246.5L2560 1268L2560 1151L2474.7 1134.2C2389.3 1117.3 2218.7 1083.7 2048 1071.7C1877.3 1059.7 1706.7 1069.3 1536 1088.5C1365.3 1107.7 1194.7 1136.3 1024 1148.3C853.3 1160.3 682.7 1155.7 512 1112.5C341.3 1069.3 170.7 987.7 85.3 946.8L0 906Z" fill="#0d2f4f"></path><path d="M0 1225L85.3 1239.3C170.7 1253.7 341.3 1282.3 512 1311.2C682.7 1340 853.3 1369 1024 1345C1194.7 1321 1365.3 1244 1536 1205.5C1706.7 1167 1877.3 1167 2048 1205.5C2218.7 1244 2389.3 1321 2474.7 1359.5L2560 1398L2560 1266L2474.7 1244.5C2389.3 1223 2218.7 1180 2048 1148.8C1877.3 1117.7 1706.7 1098.3 1536 1115C1365.3 1131.7 1194.7 1184.3 1024 1206C853.3 1227.7 682.7 1218.3 512 1189.7C341.3 1161 170.7 1113 85.3 1089L0 1065Z" fill="#194777"></path><path d="M0 1398L85.3 1402.8C170.7 1407.7 341.3 1417.3 512 1419.7C682.7 1422 853.3 1417 1024 1393C1194.7 1369 1365.3 1326 1536 1306.8C1706.7 1287.7 1877.3 1292.3 2048 1313.8C2218.7 1335.3 2389.3 1373.7 2474.7 1392.8L2560 1412L2560 1396L2474.7 1357.5C2389.3 1319 2218.7 1242 2048 1203.5C1877.3 1165 1706.7 1165 1536 1203.5C1365.3 1242 1194.7 1319 1024 1343C853.3 1367 682.7 1338 512 1309.2C341.3 1280.3 170.7 1251.7 85.3 1237.3L0 1223Z" fill="#2d5fa2"></path><path d="M0 1441L85.3 1441C170.7 1441 341.3 1441 512 1441C682.7 1441 853.3 1441 1024 1441C1194.7 1441 1365.3 1441 1536 1441C1706.7 1441 1877.3 1441 2048 1441C2218.7 1441 2389.3 1441 2474.7 1441L2560 1441L2560 1410L2474.7 1390.8C2389.3 1371.7 2218.7 1333.3 2048 1311.8C1877.3 1290.3 1706.7 1285.7 1536 1304.8C1365.3 1324 1194.7 1367 1024 1391C853.3 1415 682.7 1420 512 1417.7C341.3 1415.3 170.7 1405.7 85.3 1400.8L0 1396Z" fill="#4778cf"></path></svg>