<svg id="visual" viewBox="0 0 2560 1440" width="2560" height="1440" xmlns="http://www.w3.org/2000/svg" xmlns:xlink="http://www.w3.org/1999/xlink" version="1.1"><path d="M0 44L85.3 46.5C170.7 49 341.3 54 512 68.5C682.7 83 853.3 107 1024 121.3C1194.7 135.7 1365.3 140.3 1536 121C1706.7 101.7 1877.3 58.3 2048 36.7C2218.7 15 2389.3 15 2474.7 15L2560 15L2560 0L2474.7 0C2389.3 0 2218.7 0 2048 0C1877.3 0 1706.7 0 1536 0C1365.3 0 1194.7 0 1024 0C853.3 0 682.7 0 512 0C341.3 0 170.7 0 85.3 0L0 0Z" fill="#9a61de"></path><path d="M0 59L85.3 78.2C170.7 97.3 341.3 135.7 512 150C682.7 164.3 853.3 154.7 1024 157C1194.7 159.3 1365.3 173.7 1536 159.3C1706.7 145 1877.3 102 2048 90C2218.7 78 2389.3 97 2474.7 106.5L2560 116L2560 13L2474.7 13C2389.3 13 2218.7 13 2048 34.7C1877.3 56.3 1706.7 99.7 1536 119C1365.3 138.3 1194.7 133.7 1024 119.3C853.3 105 682.7 81 512 66.5C341.3 52 170.7 47 85.3 44.5L0 42Z" fill="#8b60d7"></path><path d="M0 174L85.3 181.2C170.7 188.3 341.3 202.7 512 214.7C682.7 226.7 853.3 236.3 1024 250.7C1194.7 265 1365.3 284 1536 252.8C1706.7 221.7 1877.3 140.3 2048 109.2C2218.7 78 2389.3 97 2474.7 106.5L2560 116L2560 114L2474.7 104.5C2389.3 95 2218.7 76 2048 88C1877.3 100 1706.7 143 1536 157.3C1365.3 171.7 1194.7 157.3 1024 155C853.3 152.7 682.7 162.3 512 148C341.3 133.7 170.7 95.3 85.3 76.2L0 57Z" fill="#7d5ecf"></path><path d="M0 260L85.3 286.5C170.7 313 341.3 366 512 404.5C682.7 443 853.3 467 1024 519.7C1194.7 572.3 1365.3 653.7 1536 588.8C1706.7 524 1877.3 313 2048 217C2218.7 121 2389.3 140 2474.7 149.5L2560 159L2560 114L2474.7 104.5C2389.3 95 2218.7 76 2048 107.2C1877.3 138.3 1706.7 219.7 1536 250.8C1365.3 282 1194.7 263 1024 248.7C853.3 234.3 682.7 224.7 512 212.7C341.3 200.7 170.7 186.3 85.3 179.2L0 172Z" fill="#6f5cc7"></path><path d="M0 275L85.3 311C170.7 347 341.3 419 512 462.2C682.7 505.3 853.3 519.7 1024 584.3C1194.7 649 1365.3 764 1536 716C1706.7 668 1877.3 457 2048 377.8C2218.7 298.7 2389.3 351.3 2474.7 377.7L2560 404L2560 157L2474.7 147.5C2389.3 138 2218.7 119 2048 215C1877.3 311 1706.7 522 1536 586.8C1365.3 651.7 1194.7 570.3 1024 517.7C853.3 465 682.7 441 512 402.5C341.3 364 170.7 311 85.3 284.5L0 258Z" fill="#615abf"></path><path d="M0 303L85.3 365.5C170.7 428 341.3 553 512 661C682.7 769 853.3 860 1024 898.3C1194.7 936.7 1365.3 922.3 1536 845.7C1706.7 769 1877.3 630 2048 584.5C2218.7 539 2389.3 587 2474.7 611L2560 635L2560 402L2474.7 375.7C2389.3 349.3 2218.7 296.7 2048 375.8C1877.3 455 1706.7 666 1536 714C1365.3 762 1194.7 647 1024 582.3C853.3 517.7 682.7 503.3 512 460.2C341.3 417 170.7 345 85.3 309L0 273Z" fill="#5457b6"></path><path d="M0 361L85.3 433C170.7 505 341.3 649 512 757C682.7 865 853.3 937 1024 963.3C1194.7 989.7 1365.3 970.3 1536 917.5C1706.7 864.7 1877.3 778.3 2048 749.7C2218.7 721 2389.3 750 2474.7 764.5L2560 779L2560 633L2474.7 609C2389.3 585 2218.7 537 2048 582.5C1877.3 628 1706.7 767 1536 843.7C1365.3 920.3 1194.7 934.7 1024 896.3C853.3 858 682.7 767 512 659C341.3 551 170.7 426 85.3 363.5L0 301Z" fill="#4854ac"></path><path d="M0 865L85.3 917.8C170.7 970.7 341.3 1076.3 512 1146C682.7 1215.7 853.3 1249.3 1024 1266.2C1194.7 1283 1365.3 1283 1536 1242.2C1706.7 1201.3 1877.3 1119.7 2048 1102.8C2218.7 1086 2389.3 1134 2474.7 1158L2560 1182L2560 777L2474.7 762.5C2389.3 748 2218.7 719 2048 747.7C1877.3 776.3 1706.7 862.7 1536 915.5C1365.3 968.3 1194.7 987.7 1024 961.3C853.3 935 682.7 863 512 755C341.3 647 170.7 503 85.3 431L0 359Z" fill="#3c51a3"></path><path d="M0 966L85.3 1004.3C170.7 1042.7 341.3 1119.3 512 1174.5C682.7 1229.7 853.3 1263.3 1024 1292.2C1194.7 1321 1365.3 1345 1536 1318.7C1706.7 1292.3 1877.3 1215.7 2048 1189.3C2218.7 1163 2389.3 1187 2474.7 1199L2560 1211L2560 1180L2474.7 1156C2389.3 1132 2218.7 1084 2048 1100.8C1877.3 1117.7 1706.7 1199.3 1536 1240.2C1365.3 1281 1194.7 1281 1024 1264.2C853.3 1247.3 682.7 1213.7 512 1144C341.3 1074.3 170.7 968.7 85.3 915.8L0 863Z" fill="#314e99"></path><path d="M0 1081L85.3 1117C170.7 1153 341.3 1225 512 1273C682.7 1321 853.3 1345 1024 1359.3C1194.7 1373.7 1365.3 1378.3 1536 1364C1706.7 1349.7 1877.3 1316.3 2048 1290C2218.7 1263.7 2389.3 1244.3 2474.7 1234.7L2560 1225L2560 1209L2474.7 1197C2389.3 1185 2218.7 1161 2048 1187.3C1877.3 1213.7 1706.7 1290.3 1536 1316.7C1365.3 1343 1194.7 1319 1024 1290.2C853.3 1261.3 682.7 1227.7 512 1172.5C341.3 1117.3 170.7 1040.7 85.3 1002.3L0 964Z" fill="#264a8f"></path><path d="M0 1182L85.3 1220.3C170.7 1258.7 341.3 1335.3 512 1368.8C682.7 1402.3 853.3 1392.7 1024 1387.8C1194.7 1383 1365.3 1383 1536 1373.5C1706.7 1364 1877.3 1345 2048 1330.7C2218.7 1316.3 2389.3 1306.7 2474.7 1301.8L2560 1297L2560 1223L2474.7 1232.7C2389.3 1242.3 2218.7 1261.7 2048 1288C1877.3 1314.3 1706.7 1347.7 1536 1362C1365.3 1376.3 1194.7 1371.7 1024 1357.3C853.3 1343 682.7 1319 512 1271C341.3 1223 170.7 1151 85.3 1115L0 1079Z" fill="#1c4685"></path><path d="M0 1441L85.3 1441C170.7 1441 341.3 1441 512 1441C682.7 1441 853.3 1441 1024 1441C1194.7 1441 1365.3 1441 1536 1441C1706.7 1441 1877.3 1441 2048 1441C2218.7 1441 2389.3 1441 2474.7 1441L2560 1441L2560 1295L2474.7 1299.8C2389.3 1304.7 2218.7 1314.3 2048 1328.7C1877.3 1343 1706.7 1362 1536 1371.5C1365.3 1381 1194.7 1381 1024 1385.8C853.3 1390.7 682.7 1400.3 512 1366.8C341.3 1333.3 170.7 1256.7 85.3 1218.3L0 1180Z" fill="#12427b"></path></svg>