<svg id="visual" viewBox="0 0 2560 1440" width="2560" height="1440" xmlns="http://www.w3.org/2000/svg" xmlns:xlink="http://www.w3.org/1999/xlink" version="1.1"><path d="M0 116L106.7 111.2C213.3 106.3 426.7 96.7 640 94.3C853.3 92 1066.7 97 1280 116.3C1493.3 135.7 1706.7 169.3 1920 176.5C2133.3 183.7 2346.7 164.3 2453.3 154.7L2560 145L2560 0L2453.3 0C2346.7 0 2133.3 0 1920 0C1706.7 0 1493.3 0 1280 0C1066.7 0 853.3 0 640 0C426.7 0 213.3 0 106.7 0L0 0Z" fill="#f7f7f7"></path><path d="M0 289L106.7 293.8C213.3 298.7 426.7 308.3 640 318C853.3 327.7 1066.7 337.3 1280 366.2C1493.3 395 1706.7 443 1920 445.3C2133.3 447.7 2346.7 404.3 2453.3 382.7L2560 361L2560 143L2453.3 152.7C2346.7 162.3 2133.3 181.7 1920 174.5C1706.7 167.3 1493.3 133.7 1280 114.3C1066.7 95 853.3 90 640 92.3C426.7 94.7 213.3 104.3 106.7 109.2L0 114Z" fill="#ddf4e7"></path><path d="M0 433L106.7 423.3C213.3 413.7 426.7 394.3 640 401.5C853.3 408.7 1066.7 442.3 1280 473.7C1493.3 505 1706.7 534 1920 531.7C2133.3 529.3 2346.7 495.7 2453.3 478.8L2560 462L2560 359L2453.3 380.7C2346.7 402.3 2133.3 445.7 1920 443.3C1706.7 441 1493.3 393 1280 364.2C1066.7 335.3 853.3 325.7 640 316C426.7 306.3 213.3 296.7 106.7 291.8L0 287Z" fill="#c2f0d7"></path><path d="M0 534L106.7 526.8C213.3 519.7 426.7 505.3 640 524.5C853.3 543.7 1066.7 596.3 1280 625C1493.3 653.7 1706.7 658.3 1920 651.2C2133.3 644 2346.7 625 2453.3 615.5L2560 606L2560 460L2453.3 476.8C2346.7 493.7 2133.3 527.3 1920 529.7C1706.7 532 1493.3 503 1280 471.7C1066.7 440.3 853.3 406.7 640 399.5C426.7 392.3 213.3 411.7 106.7 421.3L0 431Z" fill="#a5ecc7"></path><path d="M0 577L106.7 567.3C213.3 557.7 426.7 538.3 640 557.5C853.3 576.7 1066.7 634.3 1280 665.7C1493.3 697 1706.7 702 1920 697.2C2133.3 692.3 2346.7 677.7 2453.3 670.3L2560 663L2560 604L2453.3 613.5C2346.7 623 2133.3 642 1920 649.2C1706.7 656.3 1493.3 651.7 1280 623C1066.7 594.3 853.3 541.7 640 522.5C426.7 503.3 213.3 517.7 106.7 524.8L0 532Z" fill="#86e8b7"></path><path d="M0 678L106.7 661.2C213.3 644.3 426.7 610.7 640 627.5C853.3 644.3 1066.7 711.7 1280 745.3C1493.3 779 1706.7 779 1920 769.3C2133.3 759.7 2346.7 740.3 2453.3 730.7L2560 721L2560 661L2453.3 668.3C2346.7 675.7 2133.3 690.3 1920 695.2C1706.7 700 1493.3 695 1280 663.7C1066.7 632.3 853.3 574.7 640 555.5C426.7 536.3 213.3 555.7 106.7 565.3L0 575Z" fill="#78e6b1"></path><path d="M0 721L106.7 706.7C213.3 692.3 426.7 663.7 640 680.5C853.3 697.3 1066.7 759.7 1280 802.8C1493.3 846 1706.7 870 1920 867.5C2133.3 865 2346.7 836 2453.3 821.5L2560 807L2560 719L2453.3 728.7C2346.7 738.3 2133.3 757.7 1920 767.3C1706.7 777 1493.3 777 1280 743.3C1066.7 709.7 853.3 642.3 640 625.5C426.7 608.7 213.3 642.3 106.7 659.2L0 676Z" fill="#78e6b1"></path><path d="M0 750L106.7 740.3C213.3 730.7 426.7 711.3 640 732.8C853.3 754.3 1066.7 816.7 1280 862.3C1493.3 908 1706.7 937 1920 937C2133.3 937 2346.7 908 2453.3 893.5L2560 879L2560 805L2453.3 819.5C2346.7 834 2133.3 863 1920 865.5C1706.7 868 1493.3 844 1280 800.8C1066.7 757.7 853.3 695.3 640 678.5C426.7 661.7 213.3 690.3 106.7 704.7L0 719Z" fill="#86e8b7"></path><path d="M0 779L106.7 774.2C213.3 769.3 426.7 759.7 640 790.8C853.3 822 1066.7 894 1280 944.3C1493.3 994.7 1706.7 1023.3 1920 1023.3C2133.3 1023.3 2346.7 994.7 2453.3 980.3L2560 966L2560 877L2453.3 891.5C2346.7 906 2133.3 935 1920 935C1706.7 935 1493.3 906 1280 860.3C1066.7 814.7 853.3 752.3 640 730.8C426.7 709.3 213.3 728.7 106.7 738.3L0 748Z" fill="#a5ecc7"></path><path d="M0 865L106.7 860.2C213.3 855.3 426.7 845.7 640 872C853.3 898.3 1066.7 960.7 1280 1011.2C1493.3 1061.7 1706.7 1100.3 1920 1095.7C2133.3 1091 2346.7 1043 2453.3 1019L2560 995L2560 964L2453.3 978.3C2346.7 992.7 2133.3 1021.3 1920 1021.3C1706.7 1021.3 1493.3 992.7 1280 942.3C1066.7 892 853.3 820 640 788.8C426.7 757.7 213.3 767.3 106.7 772.2L0 777Z" fill="#c2f0d7"></path><path d="M0 980L106.7 977.7C213.3 975.3 426.7 970.7 640 987.5C853.3 1004.3 1066.7 1042.7 1280 1093C1493.3 1143.3 1706.7 1205.7 1920 1208C2133.3 1210.3 2346.7 1152.7 2453.3 1123.8L2560 1095L2560 993L2453.3 1017C2346.7 1041 2133.3 1089 1920 1093.7C1706.7 1098.3 1493.3 1059.7 1280 1009.2C1066.7 958.7 853.3 896.3 640 870C426.7 843.7 213.3 853.3 106.7 858.2L0 863Z" fill="#ddf4e7"></path><path d="M0 1441L106.7 1441C213.3 1441 426.7 1441 640 1441C853.3 1441 1066.7 1441 1280 1441C1493.3 1441 1706.7 1441 1920 1441C2133.3 1441 2346.7 1441 2453.3 1441L2560 1441L2560 1093L2453.3 1121.8C2346.7 1150.7 2133.3 1208.3 1920 1206C1706.7 1203.7 1493.3 1141.3 1280 1091C1066.7 1040.7 853.3 1002.3 640 985.5C426.7 968.7 213.3 973.3 106.7 975.7L0 978Z" fill="#f7f7f7"></path></svg>